<mxfile host="Electron" agent="Mozilla/5.0 (Windows NT 10.0; Win64; x64) AppleWebKit/537.36 (KHTML, like Gecko) draw.io/24.7.8 Chrome/128.0.6613.36 Electron/32.0.1 Safari/537.36" version="24.7.8">
  <diagram name="Seite-1" id="OZtI2_3ClV7yZMfRDRCN">
    <mxGraphModel dx="1167" dy="690" grid="1" gridSize="10" guides="1" tooltips="1" connect="1" arrows="1" fold="1" page="1" pageScale="1" pageWidth="827" pageHeight="1169" math="0" shadow="0">
      <root>
        <mxCell id="0" />
        <mxCell id="1" parent="0" />
        <mxCell id="3zDoE_BEkuPKxjqWG96B-14" value="" style="endArrow=none;dashed=1;html=1;dashPattern=1 3;strokeWidth=2;rounded=0;movable=1;resizable=1;rotatable=1;deletable=1;editable=1;locked=0;connectable=1;" parent="1" edge="1" source="3zDoE_BEkuPKxjqWG96B-7">
          <mxGeometry width="50" height="50" relative="1" as="geometry">
            <mxPoint x="366" y="191" as="sourcePoint" />
            <mxPoint x="586" y="191" as="targetPoint" />
          </mxGeometry>
        </mxCell>
        <mxCell id="3zDoE_BEkuPKxjqWG96B-3" value="" style="shape=image;verticalLabelPosition=bottom;labelBackgroundColor=default;verticalAlign=top;aspect=fixed;imageAspect=0;image=https://cdn-icons-png.flaticon.com/512/1174/1174431.png;rotation=-15;movable=1;resizable=1;rotatable=1;deletable=1;editable=1;locked=0;connectable=1;" parent="1" vertex="1">
          <mxGeometry x="179" y="252" width="68.57" height="68.57" as="geometry" />
        </mxCell>
        <mxCell id="3zDoE_BEkuPKxjqWG96B-4" value="" style="shape=image;verticalLabelPosition=bottom;labelBackgroundColor=default;verticalAlign=top;aspect=fixed;imageAspect=0;image=data:image/png,iVBORw0KGgoAAAANSUhEUgAAAGQAAABkCAYAAABw4pVUAAAAAXNSR0IArs4c6QAADNdJREFUeAHtnQXsPUcRxwd3Ka5FWtydIsWhODRY8BAsuEOx4Bac4O5ePLgT3IK2uLu7w/s0u/lPv7/Zu927e7/3/mUnebm9u9mxvdvdmZ29Z9ahW6BboFugW6BboFugW6BboFugW6BboFugW6BboFugW6BboFugW6BboFugW6BboFugW6BboFtgqgWuZGbPM7Ovm9mf0o/yc83sihOJHsPMbm5mnzSzP6ffJ8zsZmZ29Ak0l6aHCOvQe4Jqe6rsb2YfNLP/jvzeb2b77ak2WjqlmWH8Et2Pm9kpRqnsQVia3rr03iPxhNKlzexXA0ZTY4J7qQo+JzWzwyvo8gaeZAP01qV3hSplFJ6QlsbIjUOds5bJHnHndRWNkem9doQWt5ekt069K1Qpo0Td1PtW3dflzOz4ZnYCM7u8mb0pMC54JWC8ycbOxzeb2RnT7y3B/SuXiJnZVQL8MXpXGKAX6f3GpDc6ozt600Vn+fNxSO8BluO3GMgyk3x82EC1+wb4JaVVYcaRYzrax0qDfObLEeVLsCS9SO97lxivJh6PaNB7gMz4LWZT3iDvHK9iPJW+znOCOvua2X8E76IB3mUEhzpnDvDOEtCjrsLFAnpnUKQ0i/Q68GYMwdHM7F1CO9J7iEbVvcOEyf3N7O5m9sokwGfSzOtZZna99ITzRnhlGJAV7io4H1MEd/5Zwb2ju5eLdxIc5CoBszYv350DRNWb7pm3Fx3RlbcRHjTCK5JNsI2nG+kdsGq79Adh4hlG5e+b2S2lDjQUXi4491EEd/5QwaWuwqsE5yGK4M7vJ7gvdfdyUfVGJ3SLdC5di/TO9Ccf/9goRCTcPwLuXxK6BwY4+dLVBZc3RuFzgkOdEjAQezm/GCD+RXA8fm35twHdWZd4RX++gGDQUFC6pxGE46xmbRcws5uY2TNEhn+vugiUzYahzLV8zpE61IUGtDycVnB/5m+mco1v5PlF5R/KJCVg03bp0SI4TFH+RSnMwTSTQfLGZvbMFO6IBPtQwPZvQptB+UZm9vRVP80T+0+5H9GtvQYtaEL7hmlS4Ov+NZDvhQX+hHXQFZ3RHRsQ8sEm/iHJ9B8V0J50CYfuXyIUhuXpKsE5zexHUgfBmAorLNElZKXnHqMG0W4NHjzx6FgCbPNh0R8bjjnHJXpHuv4kIfw9M9vnSBjxCU+5NxDeug95nM3MHmdmjCseb5NlZEEmZPOgs7sb+JuFMjbCVl4fbDkLjm1mvxSit6qkSNfjhcGRO26K2jJVVN/D4/oyXRoGef7qTX2wmd1mdX6t1E3gN3hcyqczs/OYGb4HY8cDzAw/4KNm9rsAX+tzjmwfMLObJpnfI/XOVGkDbOXpY0tsOhmuHxDUgbFE/IJS99dmxs8LGJW/nfpmlGEgxksfAqUxhMs9nEkMzWCvMzylxXkkN7rVALbSBxr/ZTIcKgZkMKwFns5IQb1GN8HbQzhiqF8u8VV6JbzS9dOvxrvbmhnxMp1gKO18jm61oDPDN9RWVDymur8Xo15EkQbO8WKzAtHxq6unDy+dsPscUNpzaCELXeJHRmRnwD5ZJaOLCy1mYCyaNcMlhNBPzYw4zRjQkEwH1VCc8wTiSQ85f2P09b7y0ftTz887MoWnaz1fBXFspr4WjdQMdCFeWQw5BicOAmuZxjvSgDtGo/V+pp+PrfXH8E+VZl4aQoEf0YtrjhEws1eLLe9VUWcHyguECIHEIWBNIHrVUYQ+eik4UXIceQsJROaGyEeucQ/HD9ylgJnVpwJ+vPVD4Rn430PqETlvBqaJWUmOVxugQPLBWwWfOt9Zrdyde6Bey60Lr9bnCSbWDrzwx9F72WrAvlALowFcpqxMbLxdKOO1D828DpI6jEHNoE7NULLCg4QhQn7azE7dzHVnBdZLWLJVI7Sc41e8Jq0+7uTQfoXeQv0oHr7SQM8SsJcX3GZQn6HEjG6BJ8QzJOLqvfJm5qnCrVM/7WnPKdN91jq2YzLfRXRGLtZBIji54BK1aIa/C5GSh8maso91ETFlbj8HcAZfLPx9Q3xr5fE+ZvUWXmOFR9/O+MWPMtcem7pLX8eXCRiOOZw18utsstQg2M7zx7bN4AlQHgJW2ghLfMPMWnyViCYNrKGKLAuD6lUrp99MN+m76TpzfX98d2rESIbaazQqkx98C5a0h3oFz5tyM7QSqPFRxoQg1vXewIB0NbevbAjlgVws9UYLbDR8bShI6baet9pzB/3ZBHZQHL6A4aJcKt66sw9XrbpLWIauTvVisF/iYRoTQvmO4e+4P5vADorDFx4YGIvJQWkyMUwtvsvg+oWAzyEx+qJXZ9tzNoEGdS4ZrAwSiV2yMbI45AZ/RRqFlURCReuE2facTaBSO2ZHdEueHyHrKOeqkuQoGms1GhYn3ed4ozWnI3j9KDfDbAKVHB8ujYHDNRaKUNIMzJdNAz/TYVb9+DGYs1BFjE2B6bHqSJrRukB5NfOZTaCCIyt+6lTiI9QCIRHwo6QCLz/zfoKbOIV+VvUSaRT2uMz1oUqye3koN8NsAhUcny0G+cXIXD6TxGjEtTTlR2WOzkm+wMvGh2CMwpH1eDh76wDPg3IzzCYwwpE4l2ac3HOkDrdJT1Ujqqw1519OTiw8PT4BSc0NqxBrFMXzoNwMswmMcNSxg66L0AMeL4FNn41CXA0vnYhy9FZwjdQksvHZ+kbonePjU4g+qoN+dGV3W409P5FGWcdYMtueswkMNAjh+u+KEZRfzTkTAPJxx7JAiBiT7Bd56/DRGRfR2KWdRdVnwDzxrdkEYrJHXI2Sz5Tf2DlGhE4L4IPoQF7iQ5b7kqB8mmn7LgNiS87RnzrydpBcQYo/cS0272g+1ddWqf+sMUwF0ptKb0s23JOnEg/qEaPLdDli22bQvYSLpEEmKdQRzMKyX4MdS1FWBlNk8mevLVPXZsVSBabMmnyQ5eC45J4OnFxPe9J6iK4fE/ZeAtg36IXLZZZao4ZYgmeJBsuuQz4MWZBLgG5cGtpEVOSneVVLbcs6OGgQuqAlu8SiUsENPHZdjs0PyXUD/CmXND+atNhmoGvIgnFk6lmTZD3GKNraMCu9coxhxf0niq5Z70dW1B1DYfz4gdBnWt4MJLzploJJ6SvCWdc8cPKWWE4VNk2nBDijbWrkU80F9beYoMBvEpDQlZ8WjrzapFrOAR2bmIZuA7Ai6XWlzAxvDrCXXtOWZm3cIRBH/+4FJaFhTqPoW0dcaRuAMUwdRLqaqUC6rE6tiQjMzWU2EtSIgvpGoczANGUgVp9iaQdsqgGph05eT2ZgrYCHz05i9eN4kFuXFYq8mf/rq4fghD9IzW8JM6ig5ypy3f0b7IzyDdLqwPGBGj4r5WnkMl3iosAUUNcuMrPPpz3pfq2hxFzzvUhm3hbg4cg6caxpEOJy7OjSrzdkOgQ2o72Vi+hMir6OKZkxRzzfp6XPMZXeGn1DWr5/tYgSA0T4vpbXh14hAnRjS8ETgn2Evj4e+WLdVCQI10hkI86jT7oXhDL7SdiVxL5AErVzwsKPRelzlBht4Lq+IcgKkADHjInMGHRCN9VXz9kpRVRi14CdqjAtrTWogJx/08x0nwXj07YARvdyE+SkR2jRkXgc6/sbA6KuTwkisl6xoTLb2rYFWKwakrV0j1VG/Ck+ILA1QIiAsDaZgDr/LinC9W1xDDEkX2EYktXfQ8fXp1nmkhuD1tKgRG3ZK86Xcxjk2dWk6+dZOUInU742ug7BS6uYJNKxSZWINHtDSC0q7QZYh1xroUm8ijWI2wVvEPP3TQM7vfJDwpHxgygCWZW8/Udp0B1RRFs3DRqFZpvB/w3omgj5WCfcoPY4tDodX3Lr9gZVq2NN96UG4Jskm4I7SHe1jqyTTelWzVdD+3i1QzuQqgk3IpL3q47e2BbwRhZ7BzrdBE+iH0j5iORug6az4rzu9TOoqUbka2y+QSjPWWtplYOlVOU/aXm1lfG24hOk0w2eRJRLH1xeUo8Dgug1G0FLQdEleW81LYKO2nURZV0q4yNSnkUxXShjTX2bIs+R3Lt2jVC2LoARTeYbIUt78WzhVl7EouZu5941Y+0WI1KBMIz26XxzZYlduNCIFpHgeZ3dUnJv48PYoeF5Goj1aEL9U0IsfEeeGJQujEGX8EhrwvbeZtPZ8tJ18HEwfVPyOffYxnaLFO5mqwF5TjibbHsmPZTZG1/tKeUQQws6vZuqbC6yWdi06b+hkhtk7pHcMv4ja5OhmkozbB8aXVT0qY0pjUJDMK1lutthpgXOnxaPovywscahDpFbEjQ6LGwB1iX4wg//YvP2tGj0m/QVCBaRKLOQ9LaVg0dOLVsoalKTFhazk+sW6BboFugW6BboFugW6BboFugW6BboFugW6BY4aljgf3+9tH6ZTI47AAAAAElFTkSuQmCC;rotation=278;movable=1;resizable=1;rotatable=1;deletable=1;editable=1;locked=0;connectable=1;" parent="1" vertex="1">
          <mxGeometry x="553" y="143" width="94" height="94" as="geometry" />
        </mxCell>
        <mxCell id="3zDoE_BEkuPKxjqWG96B-5" value="" style="shape=image;verticalLabelPosition=bottom;labelBackgroundColor=default;verticalAlign=top;aspect=fixed;imageAspect=0;image=https://cdn-icons-png.flaticon.com/512/1174/1174431.png;rotation=-45;movable=1;resizable=1;rotatable=1;deletable=1;editable=1;locked=0;connectable=1;" parent="1" vertex="1">
          <mxGeometry x="410" y="330" width="73.58" height="73.58" as="geometry" />
        </mxCell>
        <mxCell id="3zDoE_BEkuPKxjqWG96B-7" value="" style="shape=image;verticalLabelPosition=bottom;labelBackgroundColor=default;verticalAlign=top;aspect=fixed;imageAspect=0;image=data:image/png,iVBORw0KGgoAAAANSUhEUgAAAGQAAABkCAYAAABw4pVUAAAAAXNSR0IArs4c6QAADNdJREFUeAHtnQXsPUcRxwd3Ka5FWtydIsWhODRY8BAsuEOx4Bac4O5ePLgT3IK2uLu7w/s0u/lPv7/Zu927e7/3/mUnebm9u9mxvdvdmZ29Z9ahW6BboFugW6BboFugW6BboFugW6BboFugW6BboFugW6BboFugW6BboFugW6BboFugW6BboFtgqgWuZGbPM7Ovm9mf0o/yc83sihOJHsPMbm5mnzSzP6ffJ8zsZmZ29Ak0l6aHCOvQe4Jqe6rsb2YfNLP/jvzeb2b77ak2WjqlmWH8Et2Pm9kpRqnsQVia3rr03iPxhNKlzexXA0ZTY4J7qQo+JzWzwyvo8gaeZAP01qV3hSplFJ6QlsbIjUOds5bJHnHndRWNkem9doQWt5ekt069K1Qpo0Td1PtW3dflzOz4ZnYCM7u8mb0pMC54JWC8ycbOxzeb2RnT7y3B/SuXiJnZVQL8MXpXGKAX6f3GpDc6ozt600Vn+fNxSO8BluO3GMgyk3x82EC1+wb4JaVVYcaRYzrax0qDfObLEeVLsCS9SO97lxivJh6PaNB7gMz4LWZT3iDvHK9iPJW+znOCOvua2X8E76IB3mUEhzpnDvDOEtCjrsLFAnpnUKQ0i/Q68GYMwdHM7F1CO9J7iEbVvcOEyf3N7O5m9sokwGfSzOtZZna99ITzRnhlGJAV7io4H1MEd/5Zwb2ju5eLdxIc5CoBszYv350DRNWb7pm3Fx3RlbcRHjTCK5JNsI2nG+kdsGq79Adh4hlG5e+b2S2lDjQUXi4491EEd/5QwaWuwqsE5yGK4M7vJ7gvdfdyUfVGJ3SLdC5di/TO9Ccf/9goRCTcPwLuXxK6BwY4+dLVBZc3RuFzgkOdEjAQezm/GCD+RXA8fm35twHdWZd4RX++gGDQUFC6pxGE46xmbRcws5uY2TNEhn+vugiUzYahzLV8zpE61IUGtDycVnB/5m+mco1v5PlF5R/KJCVg03bp0SI4TFH+RSnMwTSTQfLGZvbMFO6IBPtQwPZvQptB+UZm9vRVP80T+0+5H9GtvQYtaEL7hmlS4Ov+NZDvhQX+hHXQFZ3RHRsQ8sEm/iHJ9B8V0J50CYfuXyIUhuXpKsE5zexHUgfBmAorLNElZKXnHqMG0W4NHjzx6FgCbPNh0R8bjjnHJXpHuv4kIfw9M9vnSBjxCU+5NxDeug95nM3MHmdmjCseb5NlZEEmZPOgs7sb+JuFMjbCVl4fbDkLjm1mvxSit6qkSNfjhcGRO26K2jJVVN/D4/oyXRoGef7qTX2wmd1mdX6t1E3gN3hcyqczs/OYGb4HY8cDzAw/4KNm9rsAX+tzjmwfMLObJpnfI/XOVGkDbOXpY0tsOhmuHxDUgbFE/IJS99dmxs8LGJW/nfpmlGEgxksfAqUxhMs9nEkMzWCvMzylxXkkN7rVALbSBxr/ZTIcKgZkMKwFns5IQb1GN8HbQzhiqF8u8VV6JbzS9dOvxrvbmhnxMp1gKO18jm61oDPDN9RWVDymur8Xo15EkQbO8WKzAtHxq6unDy+dsPscUNpzaCELXeJHRmRnwD5ZJaOLCy1mYCyaNcMlhNBPzYw4zRjQkEwH1VCc8wTiSQ85f2P09b7y0ftTz887MoWnaz1fBXFspr4WjdQMdCFeWQw5BicOAmuZxjvSgDtGo/V+pp+PrfXH8E+VZl4aQoEf0YtrjhEws1eLLe9VUWcHyguECIHEIWBNIHrVUYQ+eik4UXIceQsJROaGyEeucQ/HD9ylgJnVpwJ+vPVD4Rn430PqETlvBqaJWUmOVxugQPLBWwWfOt9Zrdyde6Bey60Lr9bnCSbWDrzwx9F72WrAvlALowFcpqxMbLxdKOO1D828DpI6jEHNoE7NULLCg4QhQn7azE7dzHVnBdZLWLJVI7Sc41e8Jq0+7uTQfoXeQv0oHr7SQM8SsJcX3GZQn6HEjG6BJ8QzJOLqvfJm5qnCrVM/7WnPKdN91jq2YzLfRXRGLtZBIji54BK1aIa/C5GSh8maso91ETFlbj8HcAZfLPx9Q3xr5fE+ZvUWXmOFR9/O+MWPMtcem7pLX8eXCRiOOZw18utsstQg2M7zx7bN4AlQHgJW2ghLfMPMWnyViCYNrKGKLAuD6lUrp99MN+m76TpzfX98d2rESIbaazQqkx98C5a0h3oFz5tyM7QSqPFRxoQg1vXewIB0NbevbAjlgVws9UYLbDR8bShI6baet9pzB/3ZBHZQHL6A4aJcKt66sw9XrbpLWIauTvVisF/iYRoTQvmO4e+4P5vADorDFx4YGIvJQWkyMUwtvsvg+oWAzyEx+qJXZ9tzNoEGdS4ZrAwSiV2yMbI45AZ/RRqFlURCReuE2facTaBSO2ZHdEueHyHrKOeqkuQoGms1GhYn3ed4ozWnI3j9KDfDbAKVHB8ujYHDNRaKUNIMzJdNAz/TYVb9+DGYs1BFjE2B6bHqSJrRukB5NfOZTaCCIyt+6lTiI9QCIRHwo6QCLz/zfoKbOIV+VvUSaRT2uMz1oUqye3koN8NsAhUcny0G+cXIXD6TxGjEtTTlR2WOzkm+wMvGh2CMwpH1eDh76wDPg3IzzCYwwpE4l2ac3HOkDrdJT1Ujqqw1519OTiw8PT4BSc0NqxBrFMXzoNwMswmMcNSxg66L0AMeL4FNn41CXA0vnYhy9FZwjdQksvHZ+kbonePjU4g+qoN+dGV3W409P5FGWcdYMtueswkMNAjh+u+KEZRfzTkTAPJxx7JAiBiT7Bd56/DRGRfR2KWdRdVnwDzxrdkEYrJHXI2Sz5Tf2DlGhE4L4IPoQF7iQ5b7kqB8mmn7LgNiS87RnzrydpBcQYo/cS0272g+1ddWqf+sMUwF0ptKb0s23JOnEg/qEaPLdDli22bQvYSLpEEmKdQRzMKyX4MdS1FWBlNk8mevLVPXZsVSBabMmnyQ5eC45J4OnFxPe9J6iK4fE/ZeAtg36IXLZZZao4ZYgmeJBsuuQz4MWZBLgG5cGtpEVOSneVVLbcs6OGgQuqAlu8SiUsENPHZdjs0PyXUD/CmXND+atNhmoGvIgnFk6lmTZD3GKNraMCu9coxhxf0niq5Z70dW1B1DYfz4gdBnWt4MJLzploJJ6SvCWdc8cPKWWE4VNk2nBDijbWrkU80F9beYoMBvEpDQlZ8WjrzapFrOAR2bmIZuA7Ai6XWlzAxvDrCXXtOWZm3cIRBH/+4FJaFhTqPoW0dcaRuAMUwdRLqaqUC6rE6tiQjMzWU2EtSIgvpGoczANGUgVp9iaQdsqgGph05eT2ZgrYCHz05i9eN4kFuXFYq8mf/rq4fghD9IzW8JM6ig5ypy3f0b7IzyDdLqwPGBGj4r5WnkMl3iosAUUNcuMrPPpz3pfq2hxFzzvUhm3hbg4cg6caxpEOJy7OjSrzdkOgQ2o72Vi+hMir6OKZkxRzzfp6XPMZXeGn1DWr5/tYgSA0T4vpbXh14hAnRjS8ETgn2Evj4e+WLdVCQI10hkI86jT7oXhDL7SdiVxL5AErVzwsKPRelzlBht4Lq+IcgKkADHjInMGHRCN9VXz9kpRVRi14CdqjAtrTWogJx/08x0nwXj07YARvdyE+SkR2jRkXgc6/sbA6KuTwkisl6xoTLb2rYFWKwakrV0j1VG/Ck+ILA1QIiAsDaZgDr/LinC9W1xDDEkX2EYktXfQ8fXp1nmkhuD1tKgRG3ZK86Xcxjk2dWk6+dZOUInU742ug7BS6uYJNKxSZWINHtDSC0q7QZYh1xroUm8ijWI2wVvEPP3TQM7vfJDwpHxgygCWZW8/Udp0B1RRFs3DRqFZpvB/w3omgj5WCfcoPY4tDodX3Lr9gZVq2NN96UG4Jskm4I7SHe1jqyTTelWzVdD+3i1QzuQqgk3IpL3q47e2BbwRhZ7BzrdBE+iH0j5iORug6az4rzu9TOoqUbka2y+QSjPWWtplYOlVOU/aXm1lfG24hOk0w2eRJRLH1xeUo8Dgug1G0FLQdEleW81LYKO2nURZV0q4yNSnkUxXShjTX2bIs+R3Lt2jVC2LoARTeYbIUt78WzhVl7EouZu5941Y+0WI1KBMIz26XxzZYlduNCIFpHgeZ3dUnJv48PYoeF5Goj1aEL9U0IsfEeeGJQujEGX8EhrwvbeZtPZ8tJ18HEwfVPyOffYxnaLFO5mqwF5TjibbHsmPZTZG1/tKeUQQws6vZuqbC6yWdi06b+hkhtk7pHcMv4ja5OhmkozbB8aXVT0qY0pjUJDMK1lutthpgXOnxaPovywscahDpFbEjQ6LGwB1iX4wg//YvP2tGj0m/QVCBaRKLOQ9LaVg0dOLVsoalKTFhazk+sW6BboFugW6BboFugW6BboFugW6BboFugW6BY4aljgf3+9tH6ZTI47AAAAAElFTkSuQmCC;rotation=89;movable=1;resizable=1;rotatable=1;deletable=1;editable=1;locked=0;connectable=1;" parent="1" vertex="1">
          <mxGeometry x="179" y="143" width="94" height="94" as="geometry" />
        </mxCell>
        <mxCell id="3zDoE_BEkuPKxjqWG96B-21" value="" style="endArrow=none;dashed=1;html=1;dashPattern=1 3;strokeWidth=2;rounded=0;exitX=1;exitY=0.5;exitDx=0;exitDy=0;entryX=0.274;entryY=0.286;entryDx=0;entryDy=0;entryPerimeter=0;movable=1;resizable=1;rotatable=1;deletable=1;editable=1;locked=0;connectable=1;" parent="1" source="3zDoE_BEkuPKxjqWG96B-3" target="3zDoE_BEkuPKxjqWG96B-4" edge="1">
          <mxGeometry width="50" height="50" relative="1" as="geometry">
            <mxPoint x="406" y="252" as="sourcePoint" />
            <mxPoint x="536" y="252" as="targetPoint" />
          </mxGeometry>
        </mxCell>
        <mxCell id="3zDoE_BEkuPKxjqWG96B-20" value="" style="endArrow=none;dashed=1;html=1;dashPattern=1 3;strokeWidth=2;rounded=0;entryX=1;entryY=0.5;entryDx=0;entryDy=0;exitX=0;exitY=0.25;exitDx=0;exitDy=0;movable=1;resizable=1;rotatable=1;deletable=1;editable=1;locked=0;connectable=1;" parent="1" source="3zDoE_BEkuPKxjqWG96B-4" target="3zDoE_BEkuPKxjqWG96B-5" edge="1">
          <mxGeometry width="50" height="50" relative="1" as="geometry">
            <mxPoint x="446" y="192" as="sourcePoint" />
            <mxPoint x="496" y="242" as="targetPoint" />
          </mxGeometry>
        </mxCell>
        <mxCell id="6NUGrkJ1E_oZk3ksoncn-4" value="&lt;font style=&quot;font-size: 16px;&quot;&gt;Interviewer&lt;/font&gt;" style="text;html=1;align=center;verticalAlign=middle;resizable=0;points=[];autosize=1;strokeColor=none;fillColor=none;" vertex="1" parent="1">
          <mxGeometry x="79" y="175" width="100" height="30" as="geometry" />
        </mxCell>
        <mxCell id="6NUGrkJ1E_oZk3ksoncn-5" value="&lt;font style=&quot;font-size: 16px;&quot;&gt;Interview-Partner&lt;/font&gt;&lt;div&gt;&lt;font style=&quot;font-size: 16px;&quot;&gt;(8° R-Drehung)&lt;/font&gt;&lt;/div&gt;" style="text;html=1;align=center;verticalAlign=middle;resizable=0;points=[];autosize=1;strokeColor=none;fillColor=none;" vertex="1" parent="1">
          <mxGeometry x="640" y="165" width="150" height="50" as="geometry" />
        </mxCell>
        <mxCell id="6NUGrkJ1E_oZk3ksoncn-6" value="&lt;font style=&quot;font-size: 16px;&quot;&gt;Kamera 2&lt;/font&gt;&lt;div&gt;&lt;font style=&quot;font-size: 16px;&quot;&gt;Shot reverse shot&lt;/font&gt;&lt;/div&gt;" style="text;html=1;align=center;verticalAlign=middle;resizable=0;points=[];autosize=1;strokeColor=none;fillColor=none;" vertex="1" parent="1">
          <mxGeometry x="360" y="403.58000000000004" width="150" height="50" as="geometry" />
        </mxCell>
        <mxCell id="6NUGrkJ1E_oZk3ksoncn-7" value="&lt;font style=&quot;font-size: 16px;&quot;&gt;Kamera 1&lt;/font&gt;&lt;div&gt;&lt;font style=&quot;font-size: 16px;&quot;&gt;Point of view&lt;/font&gt;&lt;/div&gt;" style="text;html=1;align=center;verticalAlign=middle;resizable=0;points=[];autosize=1;strokeColor=none;fillColor=none;" vertex="1" parent="1">
          <mxGeometry x="150" y="310.00000000000006" width="110" height="50" as="geometry" />
        </mxCell>
        <mxCell id="6NUGrkJ1E_oZk3ksoncn-8" value="&lt;span style=&quot;font-size: 16px;&quot;&gt;Handlungsachse&lt;/span&gt;" style="text;html=1;align=center;verticalAlign=middle;resizable=0;points=[];autosize=1;strokeColor=none;fillColor=none;" vertex="1" parent="1">
          <mxGeometry x="343.5" y="160" width="140" height="30" as="geometry" />
        </mxCell>
      </root>
    </mxGraphModel>
  </diagram>
</mxfile>
